<?xml version="1.0" encoding="UTF-8"?>
<svg width="512" height="512" viewBox="0 0 512 512" xmlns="http://www.w3.org/2000/svg">
  <defs>
    <linearGradient id="g" x1="0" x2="1" y1="0" y2="1">
      <stop offset="0%" stop-color="#00E1FF"/>
      <stop offset="100%" stop-color="#0A84FF"/>
    </linearGradient>
  </defs>
  <rect width="512" height="512" rx="92" ry="92" fill="#1a1a1a"/>
  <!-- Headband -->
  <path d="M128 256a128 128 0 0 1 256 0h-40a88 88 0 0 0-176 0h-40z" fill="url(#g)"/>
  <!-- Left cup -->
  <path d="M116 270h56a32 48 0 0 1 0 96h-56z" fill="#EAEAEA"/>
  <!-- Right cup -->
  <path d="M340 270h56v96h-56a32 48 0 0 1 0-96z" fill="#EAEAEA"/>
  <!-- Noise waves -->
  <path d="M196 344c10-18 20-18 30 0s20 18 30 0 20-18 30 0" fill="none" stroke="#00E1FF" stroke-width="6"/>
  <path d="M184 364c12-22 24-22 36 0s24 22 36 0 24-22 36 0" fill="none" stroke="#00E1FF" stroke-width="5" opacity="0.9"/>
  <path d="M208 326c8-14 16-14 24 0s16 14 24 0 16-14 24 0" fill="none" stroke="#00E1FF" stroke-width="4" opacity="0.8"/>
</svg>

